name C:\Users\antoi\Documents\MyRepositories\upper-imu-dc\Results\main_tracking\Case_69\FLX01_orientations_groundFrame.mot
datacolumns 13
datarows 32
range 2.01000000 2.32000000
endheader 
time	radius_imu_[0][0]	radius_imu_[0][1]	radius_imu_[0][2]	radius_imu_[1][0]	radius_imu_[1][1]	radius_imu_[1][2]	radius_imu_[2][0]	radius_imu_[2][1]	radius_imu_[2][2]	radius_imu_x	radius_imu_y	radius_imu_z	
          2.01000000	          0.42456997	         -0.86857117	         -0.25558650	         -0.36573826	         -0.42276694	          0.82915839	         -0.82823660	         -0.25855799	         -0.49716386	         -2.11092209	         -0.25845430	          1.11613729	
          2.02000000	          0.43226896	         -0.86289848	         -0.26182008	         -0.36712895	         -0.43360424	          0.82292387	         -0.82362605	         -0.25960272	         -0.50422867	         -2.12052228	         -0.26490759	          1.10638904	
          2.03000000	          0.44000556	         -0.85712133	         -0.26783974	         -0.36846751	         -0.44432556	          0.81658220	         -0.81891807	         -0.26061047	         -0.51132708	         -2.13024342	         -0.27115015	          1.09652370	
          2.04000000	          0.44775648	         -0.85124871	         -0.27365995	         -0.36973320	         -0.45492631	          0.81014777	         -0.81413236	         -0.26156774	         -0.51843111	         -2.14005395	         -0.27719619	          1.08656603	
          2.05000000	          0.45549820	         -0.84528954	         -0.27929731	         -0.37090379	         -0.46540203	          0.80363632	         -0.80929091	         -0.26246246	         -0.52551088	         -2.14991973	         -0.28306222	          1.07654109	
          2.06000000	          0.46320756	         -0.83925251	         -0.28477003	         -0.37195666	         -0.47574856	          0.79706433	         -0.80441718	         -0.26328412	         -0.53253589	         -2.15980551	         -0.28876652	          1.06647354	
          2.07000000	          0.47086252	         -0.83314588	         -0.29009729	         -0.37287010	         -0.48596228	          0.79044832	         -0.79953510	         -0.26402389	         -0.53947661	         -2.16967675	         -0.29432849	          1.05638687	
          2.08000000	          0.47844293	         -0.82697720	         -0.29529827	         -0.37362474	         -0.49604034	          0.78380389	         -0.79466780	         -0.26467469	         -0.54630614	         -2.17950159	         -0.29976770	          1.04630251	
          2.09000000	          0.48593149	         -0.82075314	         -0.30039119	         -0.37420507	         -0.50598093	          0.77714469	         -0.78983616	         -0.26523117	         -0.55300205	         -2.18925312	         -0.30510276	          1.03623878	
          2.10000000	          0.49331471	         -0.81447918	         -0.30539198	         -0.37460074	         -0.51578348	          0.77048146	         -0.78505725	         -0.26568978	         -0.55954808	         -2.19891141	         -0.31035004	          1.02620996	
          2.11000000	          0.50058377	         -0.80815941	         -0.31031315	         -0.37480766	         -0.52544879	          0.76382117	         -0.78034294	         -0.26604874	         -0.56593547	         -2.20846517	         -0.31552243	          1.01622533	
          2.12000000	          0.50773518	         -0.80179638	         -0.31516274	         -0.37482842	         -0.53497903	          0.75716649	         -0.77569881	         -0.26630811	         -0.57216374	         -2.21791279	         -0.32062813	          1.00628853	
          2.13000000	          0.51477102	         -0.79539102	         -0.31994363	         -0.37467213	         -0.54437761	          0.75051570	         -0.77112359	         -0.26646977	         -0.57824066	         -2.22726237	         -0.32566998	          0.99639735	
          2.14000000	          0.52169875	         -0.78894271	         -0.32465336	         -0.37435340	         -0.55364902	          0.74386309	         -0.76660938	         -0.26653736	         -0.58418139	         -2.23653073	         -0.33064522	          0.98654394	
          2.15000000	          0.52853056	         -0.78244941	         -0.32928463	         -0.37389080	         -0.56279842	          0.73719985	         -0.76214245	         -0.26651615	         -0.59000680	         -2.24574147	         -0.33554585	          0.97671555	
          2.16000000	          0.53528229	         -0.77590786	         -0.33382610	         -0.37330482	         -0.57183140	          0.73051513	         -0.75770468	         -0.26641292	         -0.59574136	         -2.25492245	         -0.34035961	          0.96689555	
          2.17000000	          0.54197229	         -0.76931381	         -0.33826367	         -0.37261588	         -0.58075367	          0.72379733	         -0.75327515	         -0.26623568	         -0.60141094	         -2.26410314	         -0.34507118	          0.95706468	
          2.18000000	          0.54862018	         -0.76266224	         -0.34258168	         -0.37184256	         -0.58957084	          0.71703510	         -0.74883176	         -0.26599347	         -0.60704074	         -2.27331225	         -0.34966349	          0.94720227	
          2.19000000	          0.55524571	         -0.75594766	         -0.34676409	         -0.37100037	         -0.59828819	          0.71021826	         -0.74435269	         -0.26569604	         -0.61265381	         -2.28257579	         -0.35411893	          0.93728739	
          2.20000000	          0.56186775	         -0.74916434	         -0.35079542	         -0.37010095	         -0.60691048	          0.70333843	         -0.73981749	         -0.26535346	         -0.61826986	         -2.29191570	         -0.35842037	          0.92729992	
          2.21000000	          0.56850331	         -0.74230669	         -0.35466148	         -0.36915178	         -0.61544178	          0.69638953	         -0.73520810	         -0.26497583	         -0.62390453	         -2.30134890	         -0.36255199	          0.91722159	
          2.22000000	          0.57516680	         -0.73536960	         -0.35834998	         -0.36815618	         -0.62388522	          0.68936802	         -0.73050954	         -0.26457283	         -0.62956892	         -2.31088666	         -0.36649989	          0.90703684	
          2.23000000	          0.58186944	         -0.72834878	         -0.36185080	         -0.36711369	         -0.63224283	          0.68227307	         -0.72571033	         -0.26415347	         -0.63526959	         -2.32053450	         -0.37025246	          0.89673352	
          2.24000000	          0.58861903	         -0.72124105	         -0.36515611	         -0.36602073	         -0.64051544	          0.67510651	         -0.72080266	         -0.26372583	         -0.64100875	         -2.33029240	         -0.37380049	          0.88630330	
          2.25000000	          0.59541997	         -0.71404451	         -0.36826008	         -0.36487149	         -0.64870263	          0.66787251	         -0.71578199	         -0.26329703	         -0.64678499	         -2.34015555	         -0.37713689	          0.87574168	
          2.26000000	          0.60227376	         -0.70675865	         -0.37115837	         -0.36365896	         -0.65680275	          0.66057725	         -0.71064653	         -0.26287328	         -0.65259417	         -2.35011533	         -0.38025619	          0.86504772	
          2.27000000	          0.60917954	         -0.69938429	         -0.37384744	         -0.36237591	         -0.66481299	          0.65322843	         -0.70539634	         -0.26246009	         -0.65843049	         -2.36016048	         -0.38315380	          0.85422345	
          2.28000000	          0.61613483	         -0.69192359	         -0.37632383	         -0.36101570	         -0.67272949	          0.64583488	         -0.70003253	         -0.26206255	         -0.66428735	         -2.37027809	         -0.38582523	          0.84327335	
          2.29000000	          0.62313608	         -0.68437995	         -0.37858356	         -0.35957292	         -0.68054738	          0.63840628	         -0.69455651	         -0.26168559	         -0.67015812	         -2.38045437	         -0.38826547	          0.83220382	
          2.30000000	          0.63017903	         -0.67675800	         -0.38062186	         -0.35804360	         -0.68826090	          0.63095302	         -0.68896965	         -0.26133414	         -0.67603646	         -2.39067493	         -0.39046868	          0.82102289	
          2.31000000	          0.63725879	         -0.66906359	         -0.38243319	         -0.35642518	         -0.69586348	          0.62348625	         -0.68327324	         -0.26101327	         -0.68191623	         -2.40092476	         -0.39242824	          0.80974018	
          2.32000000	          0.64436963	         -0.66130380	         -0.38401180	         -0.35471625	         -0.70334781	          0.61601805	         -0.67746894	         -0.26072810	         -0.68779117	         -2.41118778	         -0.39413733	          0.79836712	
